# xmcd
#
# Track frame offsets:
#	150
#	25672
#	59286
#	95063
#	124138
#	157809
#	176597
#
# Disc length: 2802 seconds
#
# Revision: 1
# Processed by: cddbd v1.5.2PL0 Copyright (c) Steve Scherf et al.
# Submitted via: audiograbber 1.83.01
#
DISCID=510af007
DTITLE=Scott Henderson - Live! [CD1)
DYEAR=1995
DGENRE=Blues
TTITLE0=Slidin'
TTITLE1=Well To The Bone
TTITLE2=Sultan's Boogie
TTITLE3=Xanax
TTITLE4=Lady P
TTITLE5=Jakarta
TTITLE6=Tacos Are Good
EXTD=
EXTT0=
EXTT1=
EXTT2=
EXTT3=
EXTT4=
EXTT5=
EXTT6=
PLAYORDER=
